Coordinates
version=1
nRows=6
nColumns=63
inDegrees=yes

Units are S.I. units (second, meters, Newtons, ...)
If the header above contains a line with 'inDegrees', this indicates whether rotational values are in degrees (yes) or radians (no).

endheader
time	pelvis_tilt	pelvis_list	pelvis_rotation	pelvis_tx	pelvis_ty	pelvis_tz	hip_flexion_r	hip_adduction_r	hip_rotation_r	knee_angle_r	knee_angle_r_beta	ankle_angle_r	subtalar_angle_r	mtp_angle_r	hip_flexion_l	hip_adduction_l	hip_rotation_l	knee_angle_l	knee_angle_l_beta	ankle_angle_l	subtalar_angle_l	mtp_angle_l	L5_S1_Flex_Ext	L5_S1_Lat_Bending	L5_S1_axial_rotation	L4_L5_Flex_Ext	L4_L5_Lat_Bending	L4_L5_axial_rotation	L3_L4_Flex_Ext	L3_L4_Lat_Bending	L3_L4_axial_rotation	L2_L3_Flex_Ext	L2_L3_Lat_Bending	L2_L3_axial_rotation	L1_L2_Flex_Ext	L1_L2_Lat_Bending	L1_L2_axial_rotation	L1_T12_Flex_Ext	L1_T12_Lat_Bending	L1_T12_axial_rotation	Abs_r3	Abs_r2	Abs_r1	Abs_t1	Abs_t2	neck_flexion	neck_bending	neck_rotation	arm_flex_r	arm_add_r	arm_rot_r	elbow_flex_r	pro_sup_r	wrist_flex_r	wrist_dev_r	arm_flex_l	arm_add_l	arm_rot_l	elbow_flex_l	pro_sup_l	wrist_flex_l	wrist_dev_l
      0.00000000	     -2.66486709	     -3.95093041	     92.32125712	      0.43540697	      0.68259614	      1.03705305	      2.58748915	     -2.30019015	      0.76724706	      3.96605790	      0.06922077	     24.95115790	      0.29652697	      0.00000000	      5.12997816	      0.66895184	    -10.81292499	     10.46141086	      0.18258606	     31.60315294	     11.54112050	      0.00000000	      0.22648420	     -0.21079705	      2.28736343	      0.42060381	     -0.28036008	      2.43032365	      0.37209089	     -0.51253195	      2.43032365	      0.25884879	     -0.51253195	      2.00144300	      0.21031323	     -0.42985735	      1.85848279	      0.12941307	     -0.32652463	      1.71552257	      1.61775399	     -2.38457840	     12.72162921	      0.00000000	      0.00000000	     27.76032700	     -1.69759409	     -8.44571304	      5.41310296	     -9.18055806	     34.95543605	     54.83017121	     61.31179246	      1.61152902	     12.66208360	     27.09660655	     -5.01184126	     78.23868612	     47.59344575	     60.08895119	      4.09173243	      8.79402064
      0.01694915	     -2.66993536	     -4.02199847	     91.66932030	      0.43487878	      0.68240705	      1.03757900	      3.48332543	     -2.38725680	      1.43432318	      5.33168423	      0.09305544	     26.29993247	      0.33716213	      0.00000000	      5.11655784	      0.76876773	    -10.75364135	     10.50327467	      0.18331673	     30.80158601	     10.35508601	      0.00000000	      0.22997905	     -0.19053467	      2.42420891	      0.42709409	     -0.25341111	      2.57572196	      0.37783258	     -0.46326600	      2.57572196	      0.26284305	     -0.46326600	      2.12118279	      0.21355854	     -0.38853830	      1.96966974	      0.13141003	     -0.29513820	      1.81815668	      1.64271733	     -2.15536629	     13.48272267	      0.00000000	      0.00000000	     27.76926964	     -2.11583387	     -8.69876627	      5.55618507	     -9.07533437	     34.04278001	     53.78227327	     66.91839344	      3.00071441	     12.12999535	     28.31575707	     -3.92249315	     79.26020833	     46.31050419	     66.13541989	      7.08804616	     10.02025202
      0.03389831	     -2.68623210	     -4.07006179	     91.46519719	      0.43391018	      0.68244052	      1.03797360	      4.20584882	     -2.57033448	      0.38359563	      6.54211690	      0.11418148	     27.61517940	      2.10005023	      0.00000000	      5.11218212	      1.03099073	     -9.26850271	     10.40059434	      0.18152462	     30.01969976	      7.92150032	      0.00000000	      0.23363388	     -0.17158928	      2.44001295	      0.43388149	     -0.22821375	      2.59251376	      0.38383711	     -0.41720219	      2.59251376	      0.26702017	     -0.41720219	      2.13501133	      0.21695243	     -0.34990487	      1.98251052	      0.13349840	     -0.26579180	      1.83000971	      1.66882347	     -1.94105231	     13.57062004	      0.00000000	      0.00000000	     27.76212218	     -2.25173093	     -8.29890510	      5.81997141	     -9.42004857	     34.33529105	     53.52803401	     71.58476231	      4.35864746	     11.20489754	     28.62966920	     -3.67011882	     78.85428410	     46.31954705	     72.24266888	      8.67527897	     10.15766335
      0.05084746	     -2.80511344	     -4.07493675	     91.25617980	      0.43356012	      0.68261728	      1.03813527	      4.67416727	     -2.73974125	      0.68292588	      7.34343362	      0.12816710	     28.18424081	      1.95671082	      0.00000000	      5.04642617	      1.27745266	     -8.73913851	     10.24535617	      0.17881520	     29.61218636	      6.97554064	      0.00000000	      0.23331332	     -0.17623314	      2.48256867	      0.43328617	     -0.23439008	      2.63772921	      0.38331046	     -0.42849326	      2.63772921	      0.26665380	     -0.42849326	      2.17224759	      0.21665475	     -0.35937462	      2.01708705	      0.13331523	     -0.27298514	      1.86192650	      1.66653374	     -1.99358455	     13.80730219	      0.00000000	      0.00000000	     27.73854319	     -2.28671032	     -8.21017400	      5.89007258	     -9.96264210	     35.21314495	     53.96610278	     74.31195047	      5.01486718	      9.57205681	     28.76664807	     -4.03142625	     78.67377457	     47.09482877	     76.46674974	      9.42671767	      9.36149603
      0.06779661	     -2.95878576	     -4.11983000	     91.26104741	      0.43336621	      0.68282290	      1.03829885	      5.06881591	     -2.91984326	      0.96311650	      7.97727490	      0.13922971	     28.44113388	      1.47428234	      0.00000000	      5.07384363	      1.48208512	     -8.71606382	     10.12895718	      0.17678365	     29.50272265	      7.09591161	      0.00000000	      0.23874418	     -0.19321574	      2.49874845	      0.44337182	     -0.25697693	      2.65492022	      0.39223281	     -0.46978475	      2.65492022	      0.27286072	     -0.46978475	      2.18640489	      0.22169784	     -0.39400553	      2.03023311	      0.13641842	     -0.29929118	      1.87406133	      1.70532580	     -2.18569508	     13.89728923	      0.00000000	      0.00000000	     27.71110813	     -2.30652782	     -8.29238048	      5.80213530	    -10.60647667	     36.33987794	     55.04057002	     74.88206322	      5.20970408	      8.47173509	     28.68762541	     -4.90136702	     78.53243125	     48.54855073	     77.47811529	      9.19098737	      8.76348846
      0.08474576	     -3.04702698	     -4.01749706	     91.32275087	      0.43325872	      0.68326978	      1.03816012	      5.03742972	     -2.98626663	      1.55425465	      8.10750350	      0.14150263	     28.29304634	      0.55003290	      0.00000000	      4.94428487	      1.59549861	     -8.87737332	     10.02485422	      0.17496671	     29.61738992	      7.58647137	      0.00000000	      0.22630393	     -0.20208524	      2.49620980	      0.42026903	     -0.26877337	      2.65222291	      0.37179472	     -0.49135006	      2.65222291	      0.25864276	     -0.49135006	      2.18418357	      0.21014583	     -0.41209222	      2.02817046	      0.12931006	     -0.31303004	      1.87215735	      1.61646633	     -2.28602867	     13.88317002	      0.00000000	      0.00000000	     27.68040880	     -2.10045142	     -8.11406074	      5.64108186	    -11.37318549	     37.73838940	     56.45171042	     75.81059242	      4.89798187	      6.44573372	     28.04462977	     -6.10514825	     77.27278069	     50.50584143	     80.03907413	      8.34880216	      7.59674285
